<?xml version="1.0" encoding="UTF-8" standalone="no"?>
<svg
   xmlns:dc="http://purl.org/dc/elements/1.1/"
   xmlns:cc="http://creativecommons.org/ns#"
   xmlns:rdf="http://www.w3.org/1999/02/22-rdf-syntax-ns#"
   xmlns:svg="http://www.w3.org/2000/svg"
   xmlns="http://www.w3.org/2000/svg"
   xmlns:sodipodi="http://sodipodi.sourceforge.net/DTD/sodipodi-0.dtd"
   xmlns:inkscape="http://www.inkscape.org/namespaces/inkscape"
   version="1.1"
   id="Layer_1"
   x="0px"
   y="0px"
   viewBox="0 0 512 512"
   style="enable-background:new 0 0 512 512;"
   xml:space="preserve"
   sodipodi:docname="paint-bucket.svg"
   inkscape:export-filename="C:\Users\svent\Documents\Sven Frankson\voxels\datas\textures\miniatures\paint-bucket.png"
   inkscape:export-xdpi="48"
   inkscape:export-ydpi="48"
   inkscape:version="1.0.1 (3bc2e813f5, 2020-09-07)"><metadata
   id="metadata71"><rdf:RDF><cc:Work
       rdf:about=""><dc:format>image/svg+xml</dc:format><dc:type
         rdf:resource="http://purl.org/dc/dcmitype/StillImage" /></cc:Work></rdf:RDF></metadata><defs
   id="defs69" /><sodipodi:namedview
   pagecolor="#ffffff"
   bordercolor="#666666"
   borderopacity="1"
   objecttolerance="10"
   gridtolerance="10"
   guidetolerance="10"
   inkscape:pageopacity="0"
   inkscape:pageshadow="2"
   inkscape:window-width="2560"
   inkscape:window-height="1377"
   id="namedview67"
   showgrid="false"
   inkscape:zoom="1.96875"
   inkscape:cx="185.92332"
   inkscape:cy="251.24262"
   inkscape:window-x="1912"
   inkscape:window-y="-8"
   inkscape:window-maximized="1"
   inkscape:current-layer="Layer_1" />
<g
   id="g6"
   transform="matrix(0.75,0,0,0.75,64.000257,64.000001)"
   style="fill:#ff0000;fill-opacity:1">
	<path
   style="fill:#ff0000;fill-opacity:1"
   d="m 26.069,405.333 v 0 c -11.947,-11.947 -11.947,-30.72 0,-42.667 l 21.333,-21.333 21.333,21.333 c 11.947,11.947 11.947,30.72 0,42.667 v 0 c -11.946,11.947 -31.573,11.947 -42.666,0"
   id="path2" />
	<path
   style="fill:#ff0000;fill-opacity:1"
   d="m 280.362,58.88 c 17.067,17.067 -21.333,81.92 -84.48,145.067 -63.147,63.147 -128,101.547 -145.067,84.48 C 33.748,271.36 72.148,206.507 135.295,143.36 198.442,80.213 263.296,42.667 280.362,58.88"
   id="path4" />
</g>
<path
   style="fill:#b9bdc5;stroke-width:0.75"
   d="m 210.91176,216.96024 c -47.36025,47.36026 -96,76.16026 -108.80025,63.36 L 260.192,438.39999 c 12.80026,12.80026 61.44001,-15.99974 108.80026,-63.36 C 416.3525,327.67975 445.15251,279.04 432.35225,266.23974 L 274.27175,108.16 c 12.16051,12.80025 -15.99975,61.44 -63.35999,108.80024"
   id="path8" />
<g
   id="g14"
   transform="matrix(0.75,0,0,0.75,64.000257,64.000001)"
   style="fill:#ff0000;fill-opacity:1">
	<path
   style="fill:#ff0000;fill-opacity:1"
   d="m 313.642,220.16 90.453,90.453 c 3.413,3.413 9.387,3.413 11.947,0 32.427,-34.987 46.933,-69.12 34.987,-80.213 L 340.096,120.32 c 10.24,10.24 -0.853,40.107 -28.16,71.68 -5.974,8.533 -5.974,20.48 1.706,28.16"
   id="path10" />
	<path
   style="fill:#ff0000;fill-opacity:1"
   d="m 155.776,343.04 c -21.333,11.093 -37.547,13.653 -44.373,6.827 l 110.933,110.08 c 6.827,6.827 20.48,1.707 40.96,-10.24 5.12,-2.56 5.973,-9.387 1.707,-13.653 l -89.6,-89.6 c -5.121,-5.121 -12.801,-6.827 -19.627,-3.414"
   id="path12" />
</g>
<path
   style="fill:#e8edee;stroke-width:0.75"
   d="m 320.99225,416.64025 c 15.36001,-10.88026 31.35976,-24.96001 48.00001,-41.60026 1.92,-1.92 3.20024,-3.20024 5.12025,-5.12024 L 216.032,211.84 c -1.92,1.92 -3.20024,3.20024 -5.12024,5.12024 -16.64025,16.64025 -32.64,30.72 -48,41.60025 z"
   id="path16" />
<path
   style="fill:#6c797a;stroke-width:0.75"
   d="m 269.15226,256 c 0,14.07974 -11.52,25.59975 -25.59975,25.59975 -14.07975,0 -25.59975,-11.52001 -25.59975,-25.59975 0,-14.07975 11.52,-25.59975 25.59975,-25.59975 14.07975,0 25.59975,11.52 25.59975,25.59975"
   id="path18" />
<path
   style="fill:#556080;stroke-width:0.75"
   d="m 201.95226,64.000001 c -26.24025,0 -48,21.759749 -48,47.999999 v 71.67975 c 3.84,-3.84001 7.68,-8.31976 11.52,-12.15975 0.63975,-0.63976 0.63975,-0.63976 1.28025,-1.28026 V 112 c 0,-19.2 15.99975,-35.19975 35.19975,-35.19975 C 221.15225,76.80025 237.152,92.8 237.152,112 v 144 h 12.80026 V 112 c 0,-26.24025 -21.7605,-47.999999 -48,-47.999999"
   id="path20" />
<path
   d="m 99.551758,380.8 c -7.68,0 -14.72025,-2.55975 -20.48025,-8.31976 v 0 c -11.520001,-11.52 -11.520001,-29.43975 0,-40.95975 l 15.99975,-15.99974 c 2.55975,-2.55976 6.399752,-2.55976 8.960252,0 l 15.99975,15.99974 c 5.121,5.11951 8.3205,12.79951 8.3205,20.4795 0,7.68001 -3.20025,15.36001 -8.31975,20.48025 -5.76,5.76001 -13.44,8.31976 -20.480252,8.31976 z m -11.52,-17.28001 c 6.39975,6.39976 16.640252,6.39976 23.040002,0 2.55975,-3.20024 4.47975,-7.04025 4.47975,-11.52 0,-4.47975 -1.92,-8.31974 -4.47975,-11.52 l -11.520002,-11.52 -11.52,11.52 c -6.399751,6.39975 -6.399751,16.64025 0,23.04 z"
   id="path22"
   style="stroke-width:0.75" />
<path
   d="m 110.43201,289.27974 c -5.12025,0 -9.6,-1.28024 -12.800253,-4.47975 C 79.712008,266.88025 116.19201,211.84 160.99176,167.04025 c 44.79975,-44.79975 99.84,-81.279749 117.75974,-63.36 v 0 c 17.91976,17.91975 -18.56025,72.96 -63.35999,117.75974 -37.11975,37.11975 -80.63926,67.83975 -104.9595,67.83975 z M 265.31225,111.36025 c -12.80024,0 -49.91999,18.56025 -95.36024,64.64025 -52.47975,53.12024 -69.12,93.44025 -63.36,99.84 6.39975,6.39974 46.71974,-10.88025 99.84,-63.36001 52.47975,-53.12024 69.12,-93.44024 63.35999,-99.83999 -0.63974,-0.6405 -2.55975,-1.28025 -4.47975,-1.28025 z"
   id="path24"
   style="stroke-width:0.75" />
<path
   d="m 269.15226,448 c -5.76,0 -9.6,-1.92 -12.80025,-5.12026 L 97.631757,284.79999 l 8.960253,-8.96024 c 6.39975,6.39974 46.71974,-10.88025 99.84,-63.36001 52.47975,-53.12024 69.12,-93.44024 63.35999,-99.83999 l 8.96026,-8.96025 158.07975,158.72025 c 8.31975,8.31974 5.76,24.96 -8.31975,48.63975 -12.15976,21.12 -32.00025,45.44024 -55.04025,68.48024 -23.04,23.04001 -48.00001,42.87976 -68.48025,55.04026 -14.7195,8.96025 -26.88,13.44 -35.8395,13.44 z m -149.76,-159.36 145.91999,145.92 c 2.55976,2.55975 13.44001,1.92 33.27976,-10.23976 19.83974,-11.52 43.52024,-30.72 65.91975,-53.12024 52.47975,-52.47975 69.75975,-93.44026 63.35999,-99.84 L 281.95176,125.44 c -5.76,24.96 -33.92025,63.35999 -66.56025,95.99999 v 0 c -23.04,23.04 -48.00001,42.87976 -68.48025,55.04026 -10.8795,6.39975 -19.839,10.23974 -27.519,12.15975 z"
   id="path26"
   style="stroke-width:0.75" />
<path
   d="M 249.95226,256 H 237.152 V 112 c 0,-19.2 -15.99975,-35.19975 -35.19974,-35.19975 -19.2,0 -35.2005,15.99975 -35.2005,35.19975 v 65.27999 H 153.95151 V 112 c 0,-26.24025 21.75975,-47.999999 47.99999,-47.999999 26.24026,0 48.00001,21.759749 48.00001,47.999999 v 144 z"
   id="path28"
   style="stroke-width:0.75" />
<circle
   style="fill:none;fill-opacity:1;stroke:#000001;stroke-width:13.2383;stroke-linecap:round;stroke-linejoin:round;stroke-miterlimit:4;stroke-dasharray:none;stroke-opacity:1"
   id="path896"
   cx="243.51097"
   cy="255.62212"
   r="25.491966" />
<path
   d="m 371.55201,305.28024 c -3.20025,0 -6.39976,-1.28024 -8.96026,-3.83999 l -67.83974,-67.83976 c -7.68,-7.67999 -8.31975,-20.48024 -1.28025,-29.43974 21.75975,-24.96 24.32025,-42.24 21.12,-45.44026 l 8.96025,-8.96025 83.19974,82.56001 c 13.44001,13.44 -3.20024,44.16 -26.24024,69.12 -1.91925,2.55975 -5.1195,3.83999 -8.9595,3.83999 z M 327.39201,171.52 c -3.20025,12.80024 -13.44001,28.16025 -24.32025,40.95974 -3.20026,3.84001 -3.20026,8.96025 0,12.15976 l 68.48025,67.83975 c 24.96,-26.88001 30.71999,-47.36026 26.88,-51.20025 z"
   id="path32"
   style="stroke-width:0.75" />
<path
   d="m 237.152,417.27999 c -3.83999,0 -7.67999,-1.28024 -10.88024,-4.47975 l -83.19975,-82.55999 v 0 l 8.96025,-8.96026 v 0 c 1.92,1.92001 8.96025,2.55975 25.59975,-5.75999 v 0 c 7.68,-3.84 16.64025,-2.55975 22.40024,3.20025 l 67.2,67.2 c 2.55975,2.55975 4.47976,7.04025 3.84001,10.88024 -0.63975,3.84 -3.20025,7.68001 -6.39975,9.60001 -8.96026,5.1195 -19.20075,10.87949 -27.52051,10.87949 z M 164.83175,334.72 l 70.40026,69.75975 c 1.91999,1.92 9.6,-1.28026 23.03999,-8.96025 l -67.19999,-67.20001 c -1.92,-1.92 -5.12026,-2.55974 -7.68001,-1.28024 -7.04025,3.84074 -12.80024,6.40049 -18.56025,7.68075 z"
   id="path34"
   style="stroke-width:0.75" />
<g
   id="g36">
</g>
<g
   id="g38">
</g>
<g
   id="g40">
</g>
<g
   id="g42">
</g>
<g
   id="g44">
</g>
<g
   id="g46">
</g>
<g
   id="g48">
</g>
<g
   id="g50">
</g>
<g
   id="g52">
</g>
<g
   id="g54">
</g>
<g
   id="g56">
</g>
<g
   id="g58">
</g>
<g
   id="g60">
</g>
<g
   id="g62">
</g>
<g
   id="g64">
</g>
</svg>
