{
    "asset" : {
        "generator" : "Khronos glTF Blender I/O v0.9.36",
        "version" : "2.0"
    },
    "scene" : 0,
    "scenes" : [
        {
            "name" : "Scene",
            "nodes" : [
                0
            ]
        }
    ],
    "nodes" : [
        {
            "mesh" : 0,
            "name" : "Craneo",
            "translation" : [
                0,
                0.3626524806022644,
                0
            ]
        }
    ],
    "materials" : [
        {
            "doubleSided" : true,
            "name" : "Mat.Craneo",
            "pbrMetallicRoughness" : {}
        }
    ],
    "meshes" : [
        {
            "name" : "craneo.malla",
            "primitives" : [
                {
                    "attributes" : {
                        "POSITION" : 0,
                        "NORMAL" : 1,
                        "TEXCOORD_0" : 2
                    },
                    "indices" : 3,
                    "material" : 0
                }
            ]
        }
    ],
    "accessors" : [
        {
            "bufferView" : 0,
            "componentType" : 5126,
            "count" : 1322,
            "max" : [
                15.09468936920166,
                40.71308898925781,
                22.24376106262207
            ],
            "min" : [
                -16.45015525817871,
                5.835482120513916,
                -26.382389068603516
            ],
            "type" : "VEC3"
        },
        {
            "bufferView" : 1,
            "componentType" : 5126,
            "count" : 1322,
            "type" : "VEC3"
        },
        {
            "bufferView" : 2,
            "componentType" : 5126,
            "count" : 1322,
            "type" : "VEC2"
        },
        {
            "bufferView" : 3,
            "componentType" : 5123,
            "count" : 7140,
            "type" : "SCALAR"
        }
    ],
    "bufferViews" : [
        {
            "buffer" : 0,
            "byteLength" : 15864,
            "byteOffset" : 0
        },
        {
            "buffer" : 0,
            "byteLength" : 15864,
            "byteOffset" : 15864
        },
        {
            "buffer" : 0,
            "byteLength" : 10576,
            "byteOffset" : 31728
        },
        {
            "buffer" : 0,
            "byteLength" : 14280,
            "byteOffset" : 42304
        }
    ],
    "buffers" : [
        {
            "byteLength" : 56584,
            "uri" : "data:application/octet-stream;base64,"
        }
    ]
}
